<svg width="24" height="24" viewBox="0 0 24 24" fill="none" xmlns="http://www.w3.org/2000/svg">
<path d="M19.9 21L13.325 14.425C12.825 14.8583 12.242 15.1958 11.576 15.4375C10.91 15.6792 10.2014 15.8 9.45 15.8C7.6473 15.8 6.12163 15.175 4.87298 13.925C3.62433 12.675 3 11.1667 3 9.4C3 7.63333 3.625 6.125 4.875 4.875C6.125 3.625 7.6375 3 9.4125 3C11.1875 3 12.6958 3.625 13.9375 4.875C15.1792 6.125 15.8 7.63458 15.8 9.40375C15.8 10.1179 15.6833 10.8083 15.45 11.475C15.2167 12.1417 14.8667 12.7667 14.4 13.35L21 19.9L19.9 21ZM9.425 14.3C10.7792 14.3 11.9302 13.8208 12.8781 12.8625C13.826 11.9042 14.3 10.75 14.3 9.4C14.3 8.05 13.826 6.89583 12.8781 5.9375C11.9302 4.97917 10.7792 4.5 9.425 4.5C8.05695 4.5 6.8941 4.97917 5.93645 5.9375C4.97882 6.89583 4.5 8.05 4.5 9.4C4.5 10.75 4.97882 11.9042 5.93645 12.8625C6.8941 13.8208 8.05695 14.3 9.425 14.3Z" fill="current"/>
</svg>
