<svg width="24" height="24" viewBox="0 0 24 24" fill="none" xmlns="http://www.w3.org/2000/svg">
<path d="M6.275 20C4.80833 20 3.5625 19.4875 2.5375 18.4625C1.5125 17.4375 1 16.1917 1 14.725C1 13.425 1.41667 12.2834 2.25 11.3C3.08333 10.3167 4.14167 9.72502 5.425 9.52502C5.75833 7.90836 6.54167 6.58752 7.775 5.56252C9.00833 4.53752 10.4333 4.02502 12.05 4.02502C13.9167 4.02502 15.4917 4.70419 16.775 6.06252C18.0583 7.42086 18.7 9.05002 18.7 10.95V11.55C19.9 11.5167 20.9167 11.9042 21.75 12.7125C22.5833 13.5209 23 14.5417 23 15.775C23 16.925 22.5833 17.9167 21.75 18.75C20.9167 19.5834 19.925 20 18.775 20H6.275ZM6.275 18.5H18.775C19.525 18.5 20.1667 18.2334 20.7 17.7C21.2333 17.1667 21.5 16.525 21.5 15.775C21.5 15.025 21.2333 14.3834 20.7 13.85C20.1667 13.3167 19.525 13.05 18.775 13.05H17.2V10.95C17.2 9.43336 16.6917 8.15002 15.675 7.10002C14.6583 6.05002 13.4167 5.52502 11.95 5.52502C10.4833 5.52502 9.2375 6.05002 8.2125 7.10002C7.1875 8.15002 6.675 9.43336 6.675 10.95H6.2C5.16667 10.95 4.29167 11.3125 3.575 12.0375C2.85833 12.7625 2.5 13.6584 2.5 14.725C2.5 15.775 2.86667 16.6667 3.6 17.4C4.33333 18.1334 5.225 18.5 6.275 18.5Z" fill="black"/>
</svg>
